<?xml version="1.0" standalone="no"?><!DOCTYPE svg PUBLIC "-//W3C//DTD SVG 1.1//EN" "http://www.w3.org/Graphics/SVG/1.1/DTD/svg11.dtd"><svg class="icon" width="200px" height="199.80px" viewBox="0 0 1025 1024" version="1.1" xmlns="http://www.w3.org/2000/svg"><path d="M584.192 247.808c18.432 18.432 29.696 44.032 29.696 71.68v133.632H410.624V319.488c0-55.808 46.08-101.888 101.888-101.888 27.648 0 53.248 11.776 71.68 30.208z" fill="#2c2c2c" /><path d="M512 0C229.376 0 0 229.376 0 512s229.376 512 512 512 512-229.376 512-512S795.136 0 512 0z m204.8 783.872c0 14.336-11.776 25.6-25.6 25.6h-358.4c-14.336 0-25.6-11.264-25.6-25.6v-307.2c0-13.824 11.264-25.6 25.6-25.6h40.96V322.048c0-76.288 62.464-138.24 138.24-138.24 37.888 0 72.704 15.36 97.792 40.448 25.088 25.088 40.448 59.904 40.448 97.792v129.024h40.96c13.824 0 25.6 11.776 25.6 25.6v307.2z" fill="#2c2c2c" /><path d="M544.256 604.16l11.264 91.136h-87.04l8.192-95.232c-5.12-7.168-8.192-15.872-8.192-25.088 0-24.064 19.456-43.52 43.52-43.52s43.52 19.456 43.52 43.52c0 11.264-4.096 21.504-11.264 29.184z" fill="#2c2c2c" /></svg>